<mxfile host="65bd71144e">
    <diagram id="Vx7GQqxCXBWzqD_WFmPR" name="PÃ¡gina-1">
        <mxGraphModel dx="1242" dy="611" grid="1" gridSize="10" guides="1" tooltips="1" connect="1" arrows="1" fold="1" page="1" pageScale="1" pageWidth="1169" pageHeight="827" math="0" shadow="0">
            <root>
                <mxCell id="0"/>
                <mxCell id="1" parent="0"/>
                <mxCell id="2" value="&lt;i&gt;&lt;font style=&quot;font-size: 18px;&quot;&gt;Estructura&lt;/font&gt;&lt;/i&gt;" style="swimlane;fontStyle=1;align=center;verticalAlign=top;childLayout=stackLayout;horizontal=1;startSize=28;horizontalStack=0;resizeParent=1;resizeParentMax=0;resizeLast=0;collapsible=1;marginBottom=0;whiteSpace=wrap;html=1;" vertex="1" parent="1">
                    <mxGeometry x="430" y="40" width="240" height="204" as="geometry"/>
                </mxCell>
                <mxCell id="3" value="&lt;font style=&quot;font-size: 14px;&quot;&gt;# src: str&lt;/font&gt;&lt;div&gt;&lt;span style=&quot;font-size: 14px;&quot;&gt;# posicion: double[2]&lt;/span&gt;&lt;/div&gt;&lt;div&gt;&lt;span style=&quot;font-size: 14px; background-color: transparent;&quot;&gt;# efecto: Efecto&lt;/span&gt;&lt;/div&gt;&lt;div&gt;&lt;span style=&quot;background-color: transparent; font-size: 14px;&quot;&gt;# ladoDerecho: Estructura&lt;/span&gt;&lt;/div&gt;&lt;div&gt;&lt;div&gt;&lt;font style=&quot;font-size: 14px;&quot;&gt;# ladoIzquierdo: Estructura&lt;/font&gt;&lt;/div&gt;&lt;div&gt;&lt;font style=&quot;font-size: 14px;&quot;&gt;# ladoArriba: Estructura&lt;/font&gt;&lt;/div&gt;&lt;div&gt;&lt;font style=&quot;font-size: 14px;&quot;&gt;# ladoAbajo: Estructura&lt;/font&gt;&lt;/div&gt;&lt;div&gt;&lt;br&gt;&lt;/div&gt;&lt;/div&gt;" style="text;strokeColor=none;fillColor=none;align=left;verticalAlign=top;spacingLeft=4;spacingRight=4;overflow=hidden;rotatable=0;points=[[0,0.5],[1,0.5]];portConstraint=eastwest;whiteSpace=wrap;html=1;" vertex="1" parent="2">
                    <mxGeometry y="28" width="240" height="142" as="geometry"/>
                </mxCell>
                <mxCell id="4" value="" style="line;strokeWidth=1;fillColor=none;align=left;verticalAlign=middle;spacingTop=-1;spacingLeft=3;spacingRight=3;rotatable=0;labelPosition=right;points=[];portConstraint=eastwest;strokeColor=inherit;" vertex="1" parent="2">
                    <mxGeometry y="170" width="240" height="8" as="geometry"/>
                </mxCell>
                <mxCell id="5" value="&lt;font style=&quot;font-size: 14px;&quot;&gt;+ method(type): type&lt;/font&gt;" style="text;strokeColor=none;fillColor=none;align=left;verticalAlign=top;spacingLeft=4;spacingRight=4;overflow=hidden;rotatable=0;points=[[0,0.5],[1,0.5]];portConstraint=eastwest;whiteSpace=wrap;html=1;" vertex="1" parent="2">
                    <mxGeometry y="178" width="240" height="26" as="geometry"/>
                </mxCell>
                <mxCell id="6" value="&lt;font style=&quot;font-size: 18px;&quot;&gt;Suelo&lt;/font&gt;" style="swimlane;fontStyle=1;align=center;verticalAlign=top;childLayout=stackLayout;horizontal=1;startSize=30;horizontalStack=0;resizeParent=1;resizeParentMax=0;resizeLast=0;collapsible=1;marginBottom=0;whiteSpace=wrap;html=1;" vertex="1" parent="1">
                    <mxGeometry x="810" y="10" width="240" height="138" as="geometry"/>
                </mxCell>
                <mxCell id="7" value="&lt;span style=&quot;background-color: transparent;&quot;&gt;&lt;font style=&quot;font-size: 14px;&quot;&gt;# objetoSobreEl: Objeto&lt;/font&gt;&lt;/span&gt;&lt;div&gt;&lt;br&gt;&lt;/div&gt;" style="text;strokeColor=none;fillColor=none;align=left;verticalAlign=top;spacingLeft=4;spacingRight=4;overflow=hidden;rotatable=0;points=[[0,0.5],[1,0.5]];portConstraint=eastwest;whiteSpace=wrap;html=1;" vertex="1" parent="6">
                    <mxGeometry y="30" width="240" height="74" as="geometry"/>
                </mxCell>
                <mxCell id="8" value="" style="line;strokeWidth=1;fillColor=none;align=left;verticalAlign=middle;spacingTop=-1;spacingLeft=3;spacingRight=3;rotatable=0;labelPosition=right;points=[];portConstraint=eastwest;strokeColor=inherit;" vertex="1" parent="6">
                    <mxGeometry y="104" width="240" height="8" as="geometry"/>
                </mxCell>
                <mxCell id="9" value="&lt;font style=&quot;font-size: 14px;&quot;&gt;+ method(type): type&lt;/font&gt;" style="text;strokeColor=none;fillColor=none;align=left;verticalAlign=top;spacingLeft=4;spacingRight=4;overflow=hidden;rotatable=0;points=[[0,0.5],[1,0.5]];portConstraint=eastwest;whiteSpace=wrap;html=1;" vertex="1" parent="6">
                    <mxGeometry y="112" width="240" height="26" as="geometry"/>
                </mxCell>
                <mxCell id="10" value="Interactivo" style="swimlane;fontStyle=1;align=center;verticalAlign=top;childLayout=stackLayout;horizontal=1;startSize=26;horizontalStack=0;resizeParent=1;resizeParentMax=0;resizeLast=0;collapsible=1;marginBottom=0;whiteSpace=wrap;html=1;" vertex="1" parent="1">
                    <mxGeometry x="815" y="259" width="235" height="104" as="geometry"/>
                </mxCell>
                <mxCell id="11" value="# activo: bool&lt;div&gt;# sonido: Sonido&lt;/div&gt;&lt;div&gt;&lt;br&gt;&lt;/div&gt;" style="text;strokeColor=none;fillColor=none;align=left;verticalAlign=top;spacingLeft=4;spacingRight=4;overflow=hidden;rotatable=0;points=[[0,0.5],[1,0.5]];portConstraint=eastwest;whiteSpace=wrap;html=1;" vertex="1" parent="10">
                    <mxGeometry y="26" width="235" height="44" as="geometry"/>
                </mxCell>
                <mxCell id="12" value="" style="line;strokeWidth=1;fillColor=none;align=left;verticalAlign=middle;spacingTop=-1;spacingLeft=3;spacingRight=3;rotatable=0;labelPosition=right;points=[];portConstraint=eastwest;strokeColor=inherit;" vertex="1" parent="10">
                    <mxGeometry y="70" width="235" height="8" as="geometry"/>
                </mxCell>
                <mxCell id="13" value="+ method(type): type" style="text;strokeColor=none;fillColor=none;align=left;verticalAlign=top;spacingLeft=4;spacingRight=4;overflow=hidden;rotatable=0;points=[[0,0.5],[1,0.5]];portConstraint=eastwest;whiteSpace=wrap;html=1;" vertex="1" parent="10">
                    <mxGeometry y="78" width="235" height="26" as="geometry"/>
                </mxCell>
                <mxCell id="18" value="&lt;font style=&quot;font-size: 18px;&quot;&gt;Muro&lt;/font&gt;" style="swimlane;fontStyle=1;align=center;verticalAlign=top;childLayout=stackLayout;horizontal=1;startSize=30;horizontalStack=0;resizeParent=1;resizeParentMax=0;resizeLast=0;collapsible=1;marginBottom=0;whiteSpace=wrap;html=1;" vertex="1" parent="1">
                    <mxGeometry x="810" y="170" width="240" height="64" as="geometry"/>
                </mxCell>
                <mxCell id="20" value="" style="line;strokeWidth=1;fillColor=none;align=left;verticalAlign=middle;spacingTop=-1;spacingLeft=3;spacingRight=3;rotatable=0;labelPosition=right;points=[];portConstraint=eastwest;strokeColor=inherit;" vertex="1" parent="18">
                    <mxGeometry y="30" width="240" height="8" as="geometry"/>
                </mxCell>
                <mxCell id="21" value="+ method(type): type" style="text;strokeColor=none;fillColor=none;align=left;verticalAlign=top;spacingLeft=4;spacingRight=4;overflow=hidden;rotatable=0;points=[[0,0.5],[1,0.5]];portConstraint=eastwest;whiteSpace=wrap;html=1;" vertex="1" parent="18">
                    <mxGeometry y="38" width="240" height="26" as="geometry"/>
                </mxCell>
                <mxCell id="23" value="&lt;div&gt;Sonido&lt;/div&gt;" style="swimlane;fontStyle=1;align=center;verticalAlign=top;childLayout=stackLayout;horizontal=1;startSize=26;horizontalStack=0;resizeParent=1;resizeParentMax=0;resizeLast=0;collapsible=1;marginBottom=0;whiteSpace=wrap;html=1;" vertex="1" parent="1">
                    <mxGeometry x="950" y="430" width="160" height="134" as="geometry"/>
                </mxCell>
                <mxCell id="24" value="- src: str&lt;div&gt;- duracion: int&lt;/div&gt;&lt;div&gt;&lt;br&gt;&lt;/div&gt;" style="text;strokeColor=none;fillColor=none;align=left;verticalAlign=top;spacingLeft=4;spacingRight=4;overflow=hidden;rotatable=0;points=[[0,0.5],[1,0.5]];portConstraint=eastwest;whiteSpace=wrap;html=1;" vertex="1" parent="23">
                    <mxGeometry y="26" width="160" height="74" as="geometry"/>
                </mxCell>
                <mxCell id="25" value="" style="line;strokeWidth=1;fillColor=none;align=left;verticalAlign=middle;spacingTop=-1;spacingLeft=3;spacingRight=3;rotatable=0;labelPosition=right;points=[];portConstraint=eastwest;strokeColor=inherit;" vertex="1" parent="23">
                    <mxGeometry y="100" width="160" height="8" as="geometry"/>
                </mxCell>
                <mxCell id="26" value="+ method(type): type" style="text;strokeColor=none;fillColor=none;align=left;verticalAlign=top;spacingLeft=4;spacingRight=4;overflow=hidden;rotatable=0;points=[[0,0.5],[1,0.5]];portConstraint=eastwest;whiteSpace=wrap;html=1;" vertex="1" parent="23">
                    <mxGeometry y="108" width="160" height="26" as="geometry"/>
                </mxCell>
                <mxCell id="27" value="&lt;div&gt;&lt;font style=&quot;font-size: 18px;&quot;&gt;Objeto&lt;/font&gt;&lt;/div&gt;" style="swimlane;fontStyle=1;align=center;verticalAlign=top;childLayout=stackLayout;horizontal=1;startSize=26;horizontalStack=0;resizeParent=1;resizeParentMax=0;resizeLast=0;collapsible=1;marginBottom=0;whiteSpace=wrap;html=1;" vertex="1" parent="1">
                    <mxGeometry x="100" y="40" width="160" height="134" as="geometry"/>
                </mxCell>
                <mxCell id="28" value="&lt;div&gt;&lt;font style=&quot;font-size: 14px;&quot;&gt;# src: str&lt;/font&gt;&lt;/div&gt;&lt;font size=&quot;3&quot; style=&quot;&quot;&gt;# estaEn : Estructura&lt;/font&gt;&lt;div&gt;&lt;font size=&quot;3&quot;&gt;# efecto: efecto&lt;/font&gt;&lt;/div&gt;&lt;div&gt;&lt;br&gt;&lt;/div&gt;" style="text;strokeColor=none;fillColor=none;align=left;verticalAlign=top;spacingLeft=4;spacingRight=4;overflow=hidden;rotatable=0;points=[[0,0.5],[1,0.5]];portConstraint=eastwest;whiteSpace=wrap;html=1;" vertex="1" parent="27">
                    <mxGeometry y="26" width="160" height="74" as="geometry"/>
                </mxCell>
                <mxCell id="29" value="" style="line;strokeWidth=1;fillColor=none;align=left;verticalAlign=middle;spacingTop=-1;spacingLeft=3;spacingRight=3;rotatable=0;labelPosition=right;points=[];portConstraint=eastwest;strokeColor=inherit;" vertex="1" parent="27">
                    <mxGeometry y="100" width="160" height="8" as="geometry"/>
                </mxCell>
                <mxCell id="30" value="+ method(type): type" style="text;strokeColor=none;fillColor=none;align=left;verticalAlign=top;spacingLeft=4;spacingRight=4;overflow=hidden;rotatable=0;points=[[0,0.5],[1,0.5]];portConstraint=eastwest;whiteSpace=wrap;html=1;" vertex="1" parent="27">
                    <mxGeometry y="108" width="160" height="26" as="geometry"/>
                </mxCell>
                <mxCell id="35" value="Obstaculo" style="swimlane;fontStyle=1;align=center;verticalAlign=top;childLayout=stackLayout;horizontal=1;startSize=26;horizontalStack=0;resizeParent=1;resizeParentMax=0;resizeLast=0;collapsible=1;marginBottom=0;whiteSpace=wrap;html=1;" vertex="1" parent="1">
                    <mxGeometry x="210" y="244" width="160" height="60" as="geometry"/>
                </mxCell>
                <mxCell id="37" value="" style="line;strokeWidth=1;fillColor=none;align=left;verticalAlign=middle;spacingTop=-1;spacingLeft=3;spacingRight=3;rotatable=0;labelPosition=right;points=[];portConstraint=eastwest;strokeColor=inherit;" vertex="1" parent="35">
                    <mxGeometry y="26" width="160" height="8" as="geometry"/>
                </mxCell>
                <mxCell id="38" value="+ method(type): type" style="text;strokeColor=none;fillColor=none;align=left;verticalAlign=top;spacingLeft=4;spacingRight=4;overflow=hidden;rotatable=0;points=[[0,0.5],[1,0.5]];portConstraint=eastwest;whiteSpace=wrap;html=1;" vertex="1" parent="35">
                    <mxGeometry y="34" width="160" height="26" as="geometry"/>
                </mxCell>
                <mxCell id="39" value="Almacenamiento" style="swimlane;fontStyle=1;align=center;verticalAlign=top;childLayout=stackLayout;horizontal=1;startSize=26;horizontalStack=0;resizeParent=1;resizeParentMax=0;resizeLast=0;collapsible=1;marginBottom=0;whiteSpace=wrap;html=1;" vertex="1" parent="1">
                    <mxGeometry x="100" y="490" width="160" height="86" as="geometry"/>
                </mxCell>
                <mxCell id="40" value="- inventario: list[Item]&lt;div&gt;&lt;br&gt;&lt;/div&gt;" style="text;strokeColor=none;fillColor=none;align=left;verticalAlign=top;spacingLeft=4;spacingRight=4;overflow=hidden;rotatable=0;points=[[0,0.5],[1,0.5]];portConstraint=eastwest;whiteSpace=wrap;html=1;" vertex="1" parent="39">
                    <mxGeometry y="26" width="160" height="26" as="geometry"/>
                </mxCell>
                <mxCell id="41" value="" style="line;strokeWidth=1;fillColor=none;align=left;verticalAlign=middle;spacingTop=-1;spacingLeft=3;spacingRight=3;rotatable=0;labelPosition=right;points=[];portConstraint=eastwest;strokeColor=inherit;" vertex="1" parent="39">
                    <mxGeometry y="52" width="160" height="8" as="geometry"/>
                </mxCell>
                <mxCell id="42" value="+ method(type): type" style="text;strokeColor=none;fillColor=none;align=left;verticalAlign=top;spacingLeft=4;spacingRight=4;overflow=hidden;rotatable=0;points=[[0,0.5],[1,0.5]];portConstraint=eastwest;whiteSpace=wrap;html=1;" vertex="1" parent="39">
                    <mxGeometry y="60" width="160" height="26" as="geometry"/>
                </mxCell>
                <mxCell id="43" value="Item" style="swimlane;fontStyle=1;align=center;verticalAlign=top;childLayout=stackLayout;horizontal=1;startSize=26;horizontalStack=0;resizeParent=1;resizeParentMax=0;resizeLast=0;collapsible=1;marginBottom=0;whiteSpace=wrap;html=1;" vertex="1" parent="1">
                    <mxGeometry x="10" y="244" width="160" height="94" as="geometry"/>
                </mxCell>
                <mxCell id="44" value="&lt;div&gt;&lt;div&gt;- cantidad: int&lt;/div&gt;&lt;/div&gt;" style="text;strokeColor=none;fillColor=none;align=left;verticalAlign=top;spacingLeft=4;spacingRight=4;overflow=hidden;rotatable=0;points=[[0,0.5],[1,0.5]];portConstraint=eastwest;whiteSpace=wrap;html=1;" vertex="1" parent="43">
                    <mxGeometry y="26" width="160" height="34" as="geometry"/>
                </mxCell>
                <mxCell id="45" value="" style="line;strokeWidth=1;fillColor=none;align=left;verticalAlign=middle;spacingTop=-1;spacingLeft=3;spacingRight=3;rotatable=0;labelPosition=right;points=[];portConstraint=eastwest;strokeColor=inherit;" vertex="1" parent="43">
                    <mxGeometry y="60" width="160" height="8" as="geometry"/>
                </mxCell>
                <mxCell id="46" value="+ method(type): type" style="text;strokeColor=none;fillColor=none;align=left;verticalAlign=top;spacingLeft=4;spacingRight=4;overflow=hidden;rotatable=0;points=[[0,0.5],[1,0.5]];portConstraint=eastwest;whiteSpace=wrap;html=1;" vertex="1" parent="43">
                    <mxGeometry y="68" width="160" height="26" as="geometry"/>
                </mxCell>
                <mxCell id="47" value="Efecto" style="swimlane;fontStyle=1;align=center;verticalAlign=top;childLayout=stackLayout;horizontal=1;startSize=26;horizontalStack=0;resizeParent=1;resizeParentMax=0;resizeLast=0;collapsible=1;marginBottom=0;whiteSpace=wrap;html=1;strokeColor=default;fontFamily=Helvetica;fontSize=12;fontColor=default;fillColor=default;" vertex="1" parent="1">
                    <mxGeometry x="425" y="371" width="160" height="86" as="geometry"/>
                </mxCell>
                <mxCell id="48" value="# nombre" style="text;strokeColor=none;fillColor=none;align=left;verticalAlign=top;spacingLeft=4;spacingRight=4;overflow=hidden;rotatable=0;points=[[0,0.5],[1,0.5]];portConstraint=eastwest;whiteSpace=wrap;html=1;fontFamily=Helvetica;fontSize=12;fontColor=default;fontStyle=1;" vertex="1" parent="47">
                    <mxGeometry y="26" width="160" height="26" as="geometry"/>
                </mxCell>
                <mxCell id="49" value="" style="line;strokeWidth=1;fillColor=none;align=left;verticalAlign=middle;spacingTop=-1;spacingLeft=3;spacingRight=3;rotatable=0;labelPosition=right;points=[];portConstraint=eastwest;strokeColor=inherit;fontFamily=Helvetica;fontSize=12;fontColor=default;fontStyle=1;" vertex="1" parent="47">
                    <mxGeometry y="52" width="160" height="8" as="geometry"/>
                </mxCell>
                <mxCell id="50" value="+ method(type): type" style="text;strokeColor=none;fillColor=none;align=left;verticalAlign=top;spacingLeft=4;spacingRight=4;overflow=hidden;rotatable=0;points=[[0,0.5],[1,0.5]];portConstraint=eastwest;whiteSpace=wrap;html=1;fontFamily=Helvetica;fontSize=12;fontColor=default;fontStyle=1;" vertex="1" parent="47">
                    <mxGeometry y="60" width="160" height="26" as="geometry"/>
                </mxCell>
                <mxCell id="51" value="Habilidad" style="swimlane;fontStyle=1;align=center;verticalAlign=top;childLayout=stackLayout;horizontal=1;startSize=26;horizontalStack=0;resizeParent=1;resizeParentMax=0;resizeLast=0;collapsible=1;marginBottom=0;whiteSpace=wrap;html=1;strokeColor=default;fontFamily=Helvetica;fontSize=12;fontColor=default;fillColor=default;" vertex="1" parent="1">
                    <mxGeometry x="340" y="520" width="160" height="114" as="geometry"/>
                </mxCell>
                <mxCell id="52" value="&lt;div&gt;&lt;span style=&quot;background-color: transparent;&quot;&gt;- velocidad: double&lt;/span&gt;&lt;/div&gt;&lt;div&gt;- fuerza: double&lt;/div&gt;" style="text;strokeColor=none;fillColor=none;align=left;verticalAlign=top;spacingLeft=4;spacingRight=4;overflow=hidden;rotatable=0;points=[[0,0.5],[1,0.5]];portConstraint=eastwest;whiteSpace=wrap;html=1;fontFamily=Helvetica;fontSize=12;fontColor=default;fontStyle=1;" vertex="1" parent="51">
                    <mxGeometry y="26" width="160" height="54" as="geometry"/>
                </mxCell>
                <mxCell id="53" value="" style="line;strokeWidth=1;fillColor=none;align=left;verticalAlign=middle;spacingTop=-1;spacingLeft=3;spacingRight=3;rotatable=0;labelPosition=right;points=[];portConstraint=eastwest;strokeColor=inherit;fontFamily=Helvetica;fontSize=12;fontColor=default;fontStyle=1;" vertex="1" parent="51">
                    <mxGeometry y="80" width="160" height="8" as="geometry"/>
                </mxCell>
                <mxCell id="54" value="+ method(type): type" style="text;strokeColor=none;fillColor=none;align=left;verticalAlign=top;spacingLeft=4;spacingRight=4;overflow=hidden;rotatable=0;points=[[0,0.5],[1,0.5]];portConstraint=eastwest;whiteSpace=wrap;html=1;fontFamily=Helvetica;fontSize=12;fontColor=default;fontStyle=1;" vertex="1" parent="51">
                    <mxGeometry y="88" width="160" height="26" as="geometry"/>
                </mxCell>
                <mxCell id="55" value="DaÃ±ino" style="swimlane;fontStyle=1;align=center;verticalAlign=top;childLayout=stackLayout;horizontal=1;startSize=26;horizontalStack=0;resizeParent=1;resizeParentMax=0;resizeLast=0;collapsible=1;marginBottom=0;whiteSpace=wrap;html=1;strokeColor=default;fontFamily=Helvetica;fontSize=12;fontColor=default;fillColor=default;" vertex="1" parent="1">
                    <mxGeometry x="560" y="520" width="160" height="86" as="geometry"/>
                </mxCell>
                <mxCell id="56" value="- daÃ±o" style="text;strokeColor=none;fillColor=none;align=left;verticalAlign=top;spacingLeft=4;spacingRight=4;overflow=hidden;rotatable=0;points=[[0,0.5],[1,0.5]];portConstraint=eastwest;whiteSpace=wrap;html=1;fontFamily=Helvetica;fontSize=12;fontColor=default;fontStyle=1;" vertex="1" parent="55">
                    <mxGeometry y="26" width="160" height="26" as="geometry"/>
                </mxCell>
                <mxCell id="57" value="" style="line;strokeWidth=1;fillColor=none;align=left;verticalAlign=middle;spacingTop=-1;spacingLeft=3;spacingRight=3;rotatable=0;labelPosition=right;points=[];portConstraint=eastwest;strokeColor=inherit;fontFamily=Helvetica;fontSize=12;fontColor=default;fontStyle=1;" vertex="1" parent="55">
                    <mxGeometry y="52" width="160" height="8" as="geometry"/>
                </mxCell>
                <mxCell id="58" value="+ method(type): type" style="text;strokeColor=none;fillColor=none;align=left;verticalAlign=top;spacingLeft=4;spacingRight=4;overflow=hidden;rotatable=0;points=[[0,0.5],[1,0.5]];portConstraint=eastwest;whiteSpace=wrap;html=1;fontFamily=Helvetica;fontSize=12;fontColor=default;fontStyle=1;" vertex="1" parent="55">
                    <mxGeometry y="60" width="160" height="26" as="geometry"/>
                </mxCell>
                <mxCell id="59" value="" style="endArrow=block;endSize=16;endFill=0;html=1;fontFamily=Helvetica;fontSize=12;fontColor=default;fontStyle=1;exitX=1;exitY=0.5;exitDx=0;exitDy=0;" edge="1" parent="1" source="3" target="6">
                    <mxGeometry width="160" relative="1" as="geometry">
                        <mxPoint x="720" y="170" as="sourcePoint"/>
                        <mxPoint x="880" y="170" as="targetPoint"/>
                    </mxGeometry>
                </mxCell>
                <mxCell id="60" value="" style="endArrow=block;endSize=16;endFill=0;html=1;fontFamily=Helvetica;fontSize=12;fontColor=default;fontStyle=1;exitX=1;exitY=0.5;exitDx=0;exitDy=0;entryX=0;entryY=0.25;entryDx=0;entryDy=0;" edge="1" parent="1" source="3" target="18">
                    <mxGeometry width="160" relative="1" as="geometry">
                        <mxPoint x="700" y="199" as="sourcePoint"/>
                        <mxPoint x="767" y="158" as="targetPoint"/>
                    </mxGeometry>
                </mxCell>
                <mxCell id="62" value="" style="endArrow=block;endSize=16;endFill=0;html=1;fontFamily=Helvetica;fontSize=12;fontColor=default;fontStyle=1;exitX=1;exitY=0.5;exitDx=0;exitDy=0;entryX=0.003;entryY=0.133;entryDx=0;entryDy=0;entryPerimeter=0;" edge="1" parent="1" source="3" target="10">
                    <mxGeometry width="160" relative="1" as="geometry">
                        <mxPoint x="710" y="209" as="sourcePoint"/>
                        <mxPoint x="777" y="168" as="targetPoint"/>
                    </mxGeometry>
                </mxCell>
                <mxCell id="63" value="" style="endArrow=block;endSize=16;endFill=0;html=1;fontFamily=Helvetica;fontSize=12;fontColor=default;fontStyle=1;entryX=0.5;entryY=0;entryDx=0;entryDy=0;" edge="1" parent="1" source="47" target="55">
                    <mxGeometry width="160" relative="1" as="geometry">
                        <mxPoint x="653" y="430" as="sourcePoint"/>
                        <mxPoint x="720" y="389" as="targetPoint"/>
                    </mxGeometry>
                </mxCell>
                <mxCell id="64" value="" style="endArrow=block;endSize=16;endFill=0;html=1;fontFamily=Helvetica;fontSize=12;fontColor=default;fontStyle=1;entryX=0.5;entryY=0;entryDx=0;entryDy=0;" edge="1" parent="1" source="47" target="51">
                    <mxGeometry width="160" relative="1" as="geometry">
                        <mxPoint x="370" y="440" as="sourcePoint"/>
                        <mxPoint x="437" y="399" as="targetPoint"/>
                    </mxGeometry>
                </mxCell>
                <mxCell id="65" value="" style="endArrow=block;endSize=16;endFill=0;html=1;fontFamily=Helvetica;fontSize=12;fontColor=default;fontStyle=1;" edge="1" parent="1" source="27" target="35">
                    <mxGeometry width="160" relative="1" as="geometry">
                        <mxPoint x="270" y="170" as="sourcePoint"/>
                        <mxPoint x="337" y="129" as="targetPoint"/>
                    </mxGeometry>
                </mxCell>
                <mxCell id="67" value="" style="endArrow=block;endSize=16;endFill=0;html=1;fontFamily=Helvetica;fontSize=12;fontColor=default;fontStyle=1;" edge="1" parent="1" source="27" target="43">
                    <mxGeometry width="160" relative="1" as="geometry">
                        <mxPoint x="130" y="234" as="sourcePoint"/>
                        <mxPoint x="197" y="193" as="targetPoint"/>
                    </mxGeometry>
                </mxCell>
                <mxCell id="70" value="" style="endArrow=open;endFill=1;endSize=12;html=1;fontFamily=Helvetica;fontSize=12;fontColor=default;fontStyle=1;" edge="1" parent="1" source="10" target="23">
                    <mxGeometry width="160" relative="1" as="geometry">
                        <mxPoint x="210" y="420" as="sourcePoint"/>
                        <mxPoint x="370" y="420" as="targetPoint"/>
                    </mxGeometry>
                </mxCell>
                <mxCell id="71" value="" style="endArrow=none;html=1;edgeStyle=orthogonalEdgeStyle;fontFamily=Helvetica;fontSize=12;fontColor=default;fontStyle=1;" edge="1" parent="1" source="43" target="39">
                    <mxGeometry relative="1" as="geometry">
                        <mxPoint x="50" y="410" as="sourcePoint"/>
                        <mxPoint x="210" y="410" as="targetPoint"/>
                    </mxGeometry>
                </mxCell>
                <mxCell id="74" value="" style="endArrow=open;endFill=1;endSize=12;html=1;fontFamily=Helvetica;fontSize=12;fontColor=default;fontStyle=1;edgeStyle=elbowEdgeStyle;" edge="1" parent="1" source="27" target="47">
                    <mxGeometry width="160" relative="1" as="geometry">
                        <mxPoint x="320" y="103" as="sourcePoint"/>
                        <mxPoint x="430" y="340" as="targetPoint"/>
                        <Array as="points">
                            <mxPoint x="390" y="200"/>
                        </Array>
                    </mxGeometry>
                </mxCell>
                <mxCell id="76" value="" style="endArrow=open;endFill=1;endSize=12;html=1;fontFamily=Helvetica;fontSize=12;fontColor=default;fontStyle=1;edgeStyle=elbowEdgeStyle;" edge="1" parent="1" source="2" target="47">
                    <mxGeometry width="160" relative="1" as="geometry">
                        <mxPoint x="350" y="268" as="sourcePoint"/>
                        <mxPoint x="515" y="575" as="targetPoint"/>
                        <Array as="points">
                            <mxPoint x="480" y="361"/>
                        </Array>
                    </mxGeometry>
                </mxCell>
                <mxCell id="77" value="" style="endArrow=none;html=1;edgeStyle=elbowEdgeStyle;fontFamily=Helvetica;fontSize=12;fontColor=default;fontStyle=1;elbow=vertical;" edge="1" parent="1" source="27" target="6">
                    <mxGeometry relative="1" as="geometry">
                        <mxPoint x="250" y="117" as="sourcePoint"/>
                        <mxPoint x="800" y="20" as="targetPoint"/>
                        <Array as="points">
                            <mxPoint x="290" y="20"/>
                        </Array>
                    </mxGeometry>
                </mxCell>
            </root>
        </mxGraphModel>
    </diagram>
</mxfile>